<svg xmlns="http://www.w3.org/2000/svg" xmlns:xlink="http://www.w3.org/1999/xlink" width="40" zoomAndPan="magnify" viewBox="0 0 30 30.000001" height="40" preserveAspectRatio="xMidYMid meet" version="1.0"><defs><clipPath id="2c2073ae77"><path d="M 0.484375 0 L 29.515625 0 L 29.515625 29.03125 L 0.484375 29.03125 Z M 0.484375 0 " clip-rule="nonzero"/></clipPath></defs><g clip-path="url(#2c2073ae77)"><path fill="#998056" d="M 15 29.03125 C 6.988281 29.03125 0.484375 22.527344 0.484375 14.515625 C 0.484375 6.503906 6.988281 0 15 0 C 23.011719 0 29.515625 6.503906 29.515625 14.515625 C 29.515625 22.527344 23.011719 29.03125 15 29.03125 Z M 15 1.074219 C 7.582031 1.074219 1.558594 7.097656 1.558594 14.515625 C 1.558594 21.933594 7.582031 27.957031 15 27.957031 C 22.417969 27.957031 28.441406 21.933594 28.441406 14.515625 C 28.441406 7.097656 22.417969 1.074219 15 1.074219 Z M 15 1.074219 " fill-opacity="1" fill-rule="nonzero"/></g><path fill="#998056" d="M 17.6875 21.453125 C 17.417969 21.453125 17.203125 21.238281 17.152344 20.96875 C 17.097656 20.699219 17.3125 20.429688 17.632812 20.375 C 21.667969 19.890625 24.675781 16.453125 24.675781 12.367188 C 24.675781 7.902344 21.074219 4.300781 16.613281 4.300781 C 12.152344 4.300781 8.546875 7.902344 8.546875 12.367188 C 8.546875 12.847656 8.601562 13.386719 8.710938 13.871094 C 8.761719 14.140625 8.546875 14.460938 8.28125 14.515625 C 8.011719 14.570312 7.6875 14.355469 7.632812 14.085938 C 7.527344 13.546875 7.472656 12.957031 7.472656 12.367188 C 7.472656 7.3125 11.558594 3.226562 16.613281 3.226562 C 21.667969 3.226562 25.753906 7.3125 25.753906 12.367188 C 25.753906 16.988281 22.3125 20.859375 17.742188 21.453125 C 17.742188 21.453125 17.6875 21.453125 17.6875 21.453125 Z M 17.6875 21.453125 " fill-opacity="1" fill-rule="nonzero"/><path fill="#998056" d="M 16.613281 14.515625 C 16.289062 14.515625 16.074219 14.300781 16.074219 13.976562 L 16.074219 3.761719 C 16.074219 3.441406 16.289062 3.226562 16.613281 3.226562 C 16.933594 3.226562 17.152344 3.441406 17.152344 3.761719 L 17.152344 13.976562 C 17.152344 14.300781 16.933594 14.515625 16.613281 14.515625 Z M 16.613281 14.515625 " fill-opacity="1" fill-rule="nonzero"/><path fill="#998056" d="M 25.214844 12.902344 L 8.011719 12.902344 C 7.6875 12.902344 7.472656 12.6875 7.472656 12.367188 C 7.472656 12.042969 7.6875 11.828125 8.011719 11.828125 L 25.214844 11.828125 C 25.539062 11.828125 25.753906 12.042969 25.753906 12.367188 C 25.753906 12.6875 25.539062 12.902344 25.214844 12.902344 Z M 25.214844 12.902344 " fill-opacity="1" fill-rule="nonzero"/><path fill="#998056" d="M 17.6875 21.238281 C 17.472656 21.238281 17.3125 21.128906 17.203125 20.96875 C 17.042969 20.699219 17.152344 20.375 17.417969 20.269531 C 19.140625 19.355469 20.375 16.023438 20.375 12.367188 C 20.375 8.011719 18.65625 4.300781 16.613281 4.300781 C 14.570312 4.300781 12.847656 8.011719 12.847656 12.367188 C 12.847656 12.902344 12.847656 13.441406 12.902344 13.925781 C 12.957031 14.195312 12.6875 14.460938 12.417969 14.515625 C 12.097656 14.570312 11.882812 14.300781 11.828125 14.03125 C 11.773438 13.496094 11.773438 12.902344 11.773438 12.367188 C 11.773438 7.257812 13.925781 3.226562 16.613281 3.226562 C 19.300781 3.226562 21.453125 7.257812 21.453125 12.367188 C 21.453125 16.558594 20.054688 20.109375 17.957031 21.183594 C 17.847656 21.238281 17.796875 21.238281 17.6875 21.238281 Z M 17.6875 21.238281 " fill-opacity="1" fill-rule="nonzero"/><path fill="#998056" d="M 22.742188 18.386719 C 21.503906 17.152344 19.625 16.34375 17.582031 16.183594 L 17.6875 15.109375 C 20 15.324219 22.152344 16.238281 23.546875 17.632812 Z M 22.742188 18.386719 " fill-opacity="1" fill-rule="nonzero"/><path fill="#998056" d="M 16.613281 9.945312 C 13.871094 9.945312 11.398438 9.03125 9.730469 7.367188 C 9.515625 7.152344 9.515625 6.828125 9.730469 6.613281 C 9.945312 6.398438 10.269531 6.398438 10.484375 6.613281 C 11.882812 8.011719 14.195312 8.871094 16.613281 8.871094 C 19.03125 8.871094 21.289062 8.011719 22.742188 6.613281 C 22.957031 6.398438 23.28125 6.398438 23.496094 6.613281 C 23.710938 6.828125 23.710938 7.152344 23.496094 7.367188 C 21.828125 8.976562 19.355469 9.945312 16.613281 9.945312 Z M 16.613281 9.945312 " fill-opacity="1" fill-rule="nonzero"/><path fill="#998056" d="M 17.6875 21.503906 L 6.933594 21.503906 C 6.613281 21.503906 6.398438 21.289062 6.398438 20.96875 L 6.398438 15.054688 C 6.398438 14.140625 7.097656 13.441406 8.011719 13.441406 L 16.613281 13.441406 C 17.527344 13.441406 18.226562 14.140625 18.226562 15.054688 L 18.226562 20.96875 C 18.226562 21.289062 18.011719 21.503906 17.6875 21.503906 Z M 7.472656 20.429688 L 17.152344 20.429688 L 17.152344 15.054688 C 17.152344 14.730469 16.933594 14.515625 16.613281 14.515625 L 8.011719 14.515625 C 7.6875 14.515625 7.472656 14.730469 7.472656 15.054688 Z M 7.472656 20.429688 " fill-opacity="1" fill-rule="nonzero"/><path fill="#998056" d="M 16.074219 24.730469 L 8.546875 24.730469 C 6.773438 24.730469 5.324219 23.28125 5.324219 21.503906 L 5.324219 20.96875 C 5.324219 20.644531 5.539062 20.429688 5.859375 20.429688 L 18.761719 20.429688 C 19.085938 20.429688 19.300781 20.644531 19.300781 20.96875 L 19.300781 21.503906 C 19.300781 23.28125 17.847656 24.730469 16.074219 24.730469 Z M 6.398438 21.503906 C 6.398438 22.6875 7.367188 23.65625 8.546875 23.65625 L 16.074219 23.65625 C 17.257812 23.65625 18.226562 22.6875 18.226562 21.503906 Z M 6.398438 21.503906 " fill-opacity="1" fill-rule="nonzero"/><path fill="#998056" d="M 13.386719 23.117188 L 11.238281 23.117188 C 10.914062 23.117188 10.699219 22.902344 10.699219 22.582031 C 10.699219 22.257812 10.914062 22.042969 11.238281 22.042969 L 13.386719 22.042969 C 13.710938 22.042969 13.925781 22.257812 13.925781 22.582031 C 13.925781 22.902344 13.710938 23.117188 13.386719 23.117188 Z M 13.386719 23.117188 " fill-opacity="1" fill-rule="nonzero"/></svg>