<svg xmlns="http://www.w3.org/2000/svg" xmlns:xlink="http://www.w3.org/1999/xlink" width="40" zoomAndPan="magnify" viewBox="0 0 30 30.000001" height="40" preserveAspectRatio="xMidYMid meet" version="1.0"><defs><clipPath id="0e901675a6"><path d="M 2.699219 0 L 26 0 L 26 29.03125 L 2.699219 29.03125 Z M 2.699219 0 " clip-rule="nonzero"/></clipPath><clipPath id="df210e81b4"><path d="M 19 5 L 29.515625 5 L 29.515625 13 L 19 13 Z M 19 5 " clip-rule="nonzero"/></clipPath></defs><g clip-path="url(#0e901675a6)"><path fill="#998056" d="M 5.929688 0.53125 L 8.1875 0.53125 C 8.214844 0.226562 8.480469 0.00390625 8.785156 0.00390625 L 19.042969 0.00390625 C 19.347656 0.00390625 19.613281 0.242188 19.628906 0.53125 L 21.898438 0.53125 C 22.789062 0.53125 23.585938 0.910156 24.183594 1.480469 C 24.769531 2.066406 25.132812 2.875 25.132812 3.765625 L 25.132812 6.457031 L 24.058594 7.082031 L 24.058594 3.78125 C 24.058594 3.195312 23.820312 2.636719 23.417969 2.261719 C 23.042969 1.871094 22.484375 1.621094 21.898438 1.621094 L 19.628906 1.621094 C 19.601562 1.925781 19.335938 2.164062 19.042969 2.164062 L 8.785156 2.164062 C 8.480469 2.164062 8.214844 1.925781 8.1875 1.621094 L 5.929688 1.621094 C 5.34375 1.621094 4.789062 1.855469 4.398438 2.261719 C 4.019531 2.636719 3.769531 3.195312 3.769531 3.78125 L 3.769531 25.808594 C 3.769531 26.394531 4.007812 26.953125 4.398438 27.328125 C 4.789062 27.71875 5.332031 27.96875 5.929688 27.96875 L 21.914062 27.96875 C 22.5 27.96875 23.054688 27.734375 23.433594 27.328125 C 23.820312 26.953125 24.074219 26.394531 24.074219 25.808594 L 24.074219 12.210938 L 25.144531 11.582031 L 25.144531 25.796875 C 25.144531 26.6875 24.769531 27.496094 24.199219 28.082031 C 23.613281 28.667969 22.804688 29.027344 21.914062 29.027344 L 5.929688 29.027344 C 5.039062 29.027344 4.230469 28.652344 3.644531 28.082031 C 3.058594 27.496094 2.699219 26.6875 2.699219 25.796875 L 2.699219 3.765625 C 2.699219 2.875 3.058594 2.078125 3.644531 1.480469 C 4.230469 0.894531 5.039062 0.53125 5.929688 0.53125 Z M 5.929688 0.53125 " fill-opacity="1" fill-rule="nonzero"/></g><path fill="#998056" d="M 7.269531 15.609375 C 7.101562 15.457031 7.101562 15.207031 7.269531 15.050781 C 7.421875 14.886719 7.671875 14.886719 7.824219 15.050781 L 8.550781 15.777344 L 9.957031 13.351562 C 10.054688 13.171875 10.304688 13.101562 10.5 13.214844 C 10.683594 13.3125 10.75 13.5625 10.640625 13.757812 L 9.011719 16.597656 C 8.980469 16.628906 8.96875 16.667969 8.925781 16.695312 C 8.773438 16.851562 8.523438 16.851562 8.367188 16.695312 L 7.269531 15.597656 Z M 7.269531 15.609375 " fill-opacity="1" fill-rule="nonzero"/><path fill="#998056" d="M 12.101562 15.582031 C 11.878906 15.582031 11.714844 15.414062 11.714844 15.191406 C 11.714844 14.96875 11.878906 14.800781 12.101562 14.800781 L 20.308594 14.800781 C 20.535156 14.800781 20.699219 14.96875 20.699219 15.191406 C 20.699219 15.414062 20.535156 15.582031 20.308594 15.582031 Z M 12.101562 15.582031 " fill-opacity="1" fill-rule="nonzero"/><path fill="#998056" d="M 7.269531 19.75 C 7.101562 19.59375 7.101562 19.34375 7.269531 19.191406 C 7.421875 19.023438 7.671875 19.023438 7.824219 19.191406 L 8.550781 19.914062 L 9.957031 17.492188 C 10.054688 17.308594 10.304688 17.242188 10.5 17.351562 C 10.683594 17.449219 10.75 17.699219 10.640625 17.894531 L 9.011719 20.738281 C 8.980469 20.765625 8.96875 20.808594 8.925781 20.835938 C 8.773438 20.988281 8.523438 20.988281 8.367188 20.835938 L 7.269531 19.734375 Z M 7.269531 19.75 " fill-opacity="1" fill-rule="nonzero"/><path fill="#998056" d="M 12.101562 19.71875 C 11.878906 19.71875 11.714844 19.554688 11.714844 19.332031 C 11.714844 19.109375 11.878906 18.941406 12.101562 18.941406 L 20.308594 18.941406 C 20.535156 18.941406 20.699219 19.109375 20.699219 19.332031 C 20.699219 19.554688 20.535156 19.71875 20.308594 19.71875 Z M 12.101562 19.71875 " fill-opacity="1" fill-rule="nonzero"/><path fill="#998056" d="M 7.269531 23.886719 C 7.101562 23.734375 7.101562 23.484375 7.269531 23.328125 C 7.421875 23.164062 7.671875 23.164062 7.824219 23.328125 L 8.550781 24.054688 L 9.957031 21.628906 C 10.054688 21.449219 10.304688 21.378906 10.5 21.488281 C 10.683594 21.585938 10.75 21.839844 10.640625 22.019531 L 9.011719 24.875 C 8.980469 24.902344 8.96875 24.945312 8.925781 24.972656 C 8.773438 25.128906 8.523438 25.128906 8.367188 24.972656 L 7.269531 23.871094 Z M 7.269531 23.886719 " fill-opacity="1" fill-rule="nonzero"/><path fill="#998056" d="M 12.101562 23.859375 C 11.878906 23.859375 11.714844 23.691406 11.714844 23.46875 C 11.714844 23.246094 11.878906 23.066406 12.101562 23.066406 L 20.308594 23.066406 C 20.535156 23.066406 20.699219 23.246094 20.699219 23.46875 C 20.699219 23.691406 20.535156 23.859375 20.308594 23.859375 Z M 12.101562 23.859375 " fill-opacity="1" fill-rule="nonzero"/><path fill="#998056" d="M 13.929688 4.058594 C 15.964844 4.058594 17.605469 5.703125 17.605469 7.738281 C 17.605469 9.773438 15.964844 11.414062 13.929688 11.414062 C 11.894531 11.414062 10.25 9.773438 10.25 7.738281 C 10.25 5.703125 11.894531 4.058594 13.929688 4.058594 Z M 13.929688 5.828125 C 14.515625 5.828125 15 6.300781 15 6.902344 C 15 7.484375 14.527344 7.972656 13.929688 7.972656 C 13.34375 7.972656 12.855469 7.5 12.855469 6.902344 C 12.855469 6.316406 13.328125 5.828125 13.929688 5.828125 Z M 13.191406 8.28125 L 14.667969 8.28125 C 15.363281 8.28125 15.921875 8.839844 15.921875 9.535156 L 15.921875 9.632812 L 11.9375 9.632812 L 11.9375 9.535156 C 11.9375 8.839844 12.492188 8.28125 13.191406 8.28125 Z M 13.191406 8.28125 " fill-opacity="1" fill-rule="evenodd"/><g clip-path="url(#df210e81b4)"><path fill="#998056" d="M 28.183594 5.855469 L 29.410156 7.972656 C 29.507812 8.140625 29.453125 8.351562 29.285156 8.449219 L 22.121094 12.585938 C 22.050781 12.628906 21.984375 12.640625 21.898438 12.628906 L 19.960938 12.335938 C 19.851562 12.320312 19.765625 12.265625 19.710938 12.167969 C 19.65625 12.070312 19.65625 11.972656 19.683594 11.875 L 20.394531 10.050781 C 20.421875 9.980469 20.476562 9.910156 20.546875 9.882812 L 27.710938 5.746094 C 27.875 5.648438 28.085938 5.703125 28.183594 5.871094 Z M 27.765625 6.457031 C 27.808594 6.539062 27.777344 6.636719 27.710938 6.679688 L 21.3125 10.371094 C 21.230469 10.414062 21.132812 10.382812 21.089844 10.316406 C 21.050781 10.230469 21.078125 10.132812 21.148438 10.09375 L 27.542969 6.398438 C 27.625 6.359375 27.722656 6.386719 27.765625 6.457031 Z M 27.765625 6.457031 " fill-opacity="1" fill-rule="evenodd"/></g></svg>