<svg xmlns="http://www.w3.org/2000/svg" xmlns:xlink="http://www.w3.org/1999/xlink" width="40" zoomAndPan="magnify" viewBox="0 0 30 30.000001" height="40" preserveAspectRatio="xMidYMid meet" version="1.0"><defs><clipPath id="3ced9e0826"><path d="M 0.484375 0 L 29.515625 0 L 29.515625 29.03125 L 0.484375 29.03125 Z M 0.484375 0 " clip-rule="nonzero"/></clipPath></defs><g clip-path="url(#3ced9e0826)"><path fill="#998056" d="M 15 0 C 6.980469 0 0.484375 6.496094 0.484375 14.515625 C 0.484375 22.535156 6.980469 29.03125 15 29.03125 C 23.019531 29.03125 29.515625 22.535156 29.515625 14.515625 C 29.515625 6.496094 23.019531 0 15 0 Z M 12 7.242188 C 12.828125 6.410156 13.839844 5.992188 15.011719 5.992188 C 16.183594 5.992188 17.199219 6.410156 18.023438 7.242188 C 18.855469 8.070312 19.273438 9.085938 19.273438 10.253906 C 19.273438 11.425781 18.855469 12.441406 18.023438 13.269531 C 17.195312 14.097656 16.179688 14.515625 15.011719 14.515625 C 13.839844 14.515625 12.828125 14.097656 12 13.269531 C 11.167969 12.4375 10.75 11.421875 10.75 10.253906 C 10.742188 9.085938 11.167969 8.070312 12 7.242188 Z M 21.636719 22.882812 C 21.0625 23.429688 20.308594 23.703125 19.382812 23.703125 L 10.859375 23.703125 C 9.9375 23.703125 9.183594 23.421875 8.605469 22.882812 C 8.027344 22.332031 7.734375 21.582031 7.734375 20.660156 C 7.734375 20.304688 7.746094 19.949219 7.769531 19.613281 C 7.792969 19.265625 7.839844 18.894531 7.917969 18.492188 C 7.984375 18.09375 8.078125 17.714844 8.1875 17.367188 C 8.304688 17.007812 8.460938 16.660156 8.652344 16.316406 C 8.851562 15.96875 9.089844 15.660156 9.351562 15.40625 C 9.625 15.144531 9.964844 14.929688 10.355469 14.777344 C 10.742188 14.625 11.171875 14.546875 11.632812 14.546875 C 11.8125 14.546875 11.988281 14.621094 12.324219 14.839844 C 12.53125 14.980469 12.777344 15.136719 13.042969 15.304688 C 13.277344 15.449219 13.589844 15.589844 13.976562 15.71875 C 14.355469 15.839844 14.738281 15.902344 15.121094 15.902344 C 15.5 15.902344 15.886719 15.839844 16.265625 15.71875 C 16.65625 15.589844 16.96875 15.457031 17.199219 15.304688 C 17.472656 15.132812 17.71875 14.976562 17.921875 14.839844 C 18.257812 14.621094 18.429688 14.546875 18.613281 14.546875 C 19.070312 14.546875 19.5 14.621094 19.890625 14.777344 C 20.277344 14.933594 20.613281 15.144531 20.894531 15.40625 C 21.15625 15.652344 21.394531 15.960938 21.589844 16.316406 C 21.78125 16.652344 21.9375 17.007812 22.054688 17.367188 C 22.164062 17.714844 22.257812 18.09375 22.328125 18.492188 C 22.398438 18.886719 22.449219 19.265625 22.472656 19.613281 C 22.496094 19.949219 22.507812 20.304688 22.507812 20.660156 C 22.507812 21.582031 22.21875 22.332031 21.636719 22.882812 Z M 21.636719 22.882812 " fill-opacity="1" fill-rule="nonzero"/></g></svg>