<svg xmlns="http://www.w3.org/2000/svg" xmlns:xlink="http://www.w3.org/1999/xlink" width="40" zoomAndPan="magnify" viewBox="0 0 30 30.000001" height="40" preserveAspectRatio="xMidYMid meet" version="1.0"><defs><clipPath id="73e24e9687"><path d="M 0.484375 4.257812 L 29.515625 4.257812 L 29.515625 25.304688 L 0.484375 25.304688 Z M 0.484375 4.257812 " clip-rule="nonzero"/></clipPath></defs><g clip-path="url(#73e24e9687)"><path fill="#998056" d="M 11.980469 14.867188 C 11.980469 13.199219 13.332031 11.84375 15 11.84375 C 16.667969 11.84375 18.019531 13.199219 18.019531 14.867188 C 18.019531 16.535156 16.667969 17.886719 15 17.886719 C 13.332031 17.886719 11.980469 16.535156 11.980469 14.867188 Z M 17.285156 17.578125 C 16.667969 18.097656 15.871094 18.414062 15.007812 18.414062 C 14.140625 18.414062 13.34375 18.097656 12.726562 17.578125 C 11.074219 18.429688 9.90625 20.171875 9.828125 22.207031 C 9.828125 22.207031 9.824219 23.914062 9.824219 23.933594 C 9.824219 24.648438 12.140625 25.226562 15 25.226562 C 17.859375 25.226562 20.175781 24.648438 20.175781 23.933594 L 20.183594 22.207031 C 20.097656 20.164062 18.9375 18.429688 17.285156 17.578125 Z M 20.183594 13.742188 C 21.851562 13.742188 23.203125 12.390625 23.203125 10.722656 C 23.203125 9.054688 21.851562 7.703125 20.183594 7.703125 C 18.515625 7.703125 17.164062 9.054688 17.164062 10.722656 C 17.164062 12.390625 18.515625 13.742188 20.183594 13.742188 Z M 22.460938 13.433594 C 21.84375 13.953125 21.046875 14.269531 20.183594 14.269531 C 19.519531 14.269531 18.898438 14.085938 18.363281 13.765625 C 18.480469 14.117188 18.539062 14.484375 18.539062 14.871094 C 18.539062 15.761719 18.207031 16.574219 17.664062 17.199219 C 19.132812 18.011719 20.175781 19.433594 20.550781 21.082031 C 23.234375 21.035156 25.347656 20.472656 25.355469 19.789062 L 25.359375 18.0625 C 25.28125 16.019531 24.117188 14.285156 22.460938 13.433594 Z M 23.6875 10.234375 C 23.894531 10.273438 24.105469 10.300781 24.320312 10.300781 C 25.988281 10.300781 27.34375 8.945312 27.34375 7.277344 C 27.34375 5.609375 25.988281 4.257812 24.320312 4.257812 C 22.652344 4.257812 21.300781 5.609375 21.300781 7.277344 C 21.300781 7.308594 21.300781 7.332031 21.300781 7.363281 C 22.558594 7.785156 23.5 8.890625 23.6875 10.234375 Z M 26.597656 9.992188 C 25.984375 10.511719 25.183594 10.824219 24.320312 10.824219 C 24.117188 10.824219 23.917969 10.804688 23.722656 10.777344 C 23.710938 11.644531 23.386719 12.445312 22.847656 13.058594 C 24.507812 13.976562 25.621094 15.675781 25.84375 17.589844 C 27.957031 17.425781 29.492188 16.9375 29.492188 16.351562 L 29.5 14.625 C 29.421875 12.578125 28.253906 10.84375 26.597656 9.992188 Z M 6.800781 10.722656 C 6.800781 12.390625 8.15625 13.742188 9.824219 13.742188 C 11.488281 13.742188 12.84375 12.390625 12.84375 10.722656 C 12.84375 9.054688 11.488281 7.703125 9.824219 7.703125 C 8.15625 7.703125 6.800781 9.054688 6.800781 10.722656 Z M 12.34375 17.199219 C 11.796875 16.574219 11.464844 15.761719 11.464844 14.867188 C 11.464844 14.480469 11.527344 14.109375 11.640625 13.761719 C 11.109375 14.082031 10.488281 14.261719 9.824219 14.261719 C 8.957031 14.261719 8.160156 13.949219 7.546875 13.429688 C 5.890625 14.28125 4.722656 16.019531 4.644531 18.054688 C 4.644531 18.054688 4.640625 19.765625 4.640625 19.785156 C 4.640625 20.464844 6.765625 21.027344 9.453125 21.078125 C 9.824219 19.433594 10.867188 18.007812 12.34375 17.199219 Z M 5.683594 10.300781 C 5.902344 10.300781 6.113281 10.273438 6.320312 10.234375 C 6.507812 8.886719 7.449219 7.78125 8.703125 7.363281 C 8.703125 7.332031 8.703125 7.308594 8.703125 7.277344 C 8.703125 5.609375 7.351562 4.257812 5.683594 4.257812 C 4.015625 4.257812 2.664062 5.609375 2.664062 7.277344 C 2.664062 8.945312 4.015625 10.300781 5.683594 10.300781 Z M 7.160156 13.054688 C 6.621094 12.445312 6.292969 11.644531 6.28125 10.769531 C 6.089844 10.804688 5.890625 10.820312 5.683594 10.820312 C 4.820312 10.820312 4.023438 10.503906 3.40625 9.984375 C 1.75 10.835938 0.585938 12.578125 0.507812 14.613281 C 0.507812 14.613281 0.5 16.320312 0.5 16.339844 C 0.5 16.925781 2.042969 17.414062 4.160156 17.578125 C 4.386719 15.664062 5.496094 13.972656 7.160156 13.054688 Z M 7.160156 13.054688 " fill-opacity="1" fill-rule="nonzero"/></g></svg>